<svg width="24" height="21" viewBox="0 0 24 21" fill="none" xmlns="http://www.w3.org/2000/svg">
<path d="M22.4 8.13239V10.6147C22.3983 11.9928 21.8078 13.3139 20.7579 14.2883C19.7081 15.2628 18.2847 15.8109 16.8 15.8124H3.13135L5.36565 13.7386L4.23435 12.6886L0.10095 16.525L3.80205 20.3897L4.99795 19.403L2.9815 17.2975H16.8C20.77 17.2975 24 14.2995 24 10.6147V6.64733L22.4 8.13239Z" fill="white" fill-opacity="0.8"/>
<path d="M1.6 10.2435C1.60168 8.86541 2.19222 7.54426 3.24206 6.56984C4.2919 5.59542 5.7153 5.0473 7.2 5.04574H20.8686L18.6343 7.11958L19.7656 8.16961L23.899 4.33319L20.198 0.468506L19.002 1.45514L21.0185 3.56068H7.2C3.23 3.56068 0 6.55865 0 10.2435V14.2247L1.6 12.7396V10.2435Z" fill="white" fill-opacity="0.8"/>
</svg>
