<svg width="49" height="49" viewBox="0 0 49 49" fill="none" xmlns="http://www.w3.org/2000/svg">
<path fill-rule="evenodd" clip-rule="evenodd" d="M14.4516 16.0113C14.4516 14.8279 14.6857 13.6561 15.1404 12.5628C15.5951 11.4695 16.2616 10.4761 17.1018 9.63934C17.942 8.80256 18.9395 8.1388 20.0373 7.68594C21.1351 7.23308 22.3117 7 23.5 7C24.6883 7 25.8649 7.23308 26.9627 7.68594C28.0605 8.1388 29.058 8.80256 29.8982 9.63934C30.7384 10.4761 31.4049 11.4695 31.8596 12.5628C32.3143 13.6561 32.5484 14.8279 32.5484 16.0113C32.5484 18.4012 31.5951 20.6932 29.8982 22.3832C28.2013 24.0731 25.8998 25.0225 23.5 25.0225C21.1002 25.0225 18.7987 24.0731 17.1018 22.3832C15.4049 20.6932 14.4516 18.4012 14.4516 16.0113ZM23.5 10.1804C21.9472 10.1804 20.458 10.7948 19.36 11.8882C18.262 12.9817 17.6452 14.4648 17.6452 16.0113C17.6452 17.5577 18.262 19.0408 19.36 20.1343C20.458 21.2278 21.9472 21.8421 23.5 21.8421C25.0528 21.8421 26.542 21.2278 27.64 20.1343C28.738 19.0408 29.3548 17.5577 29.3548 16.0113C29.3548 14.4648 28.738 12.9817 27.64 11.8882C26.542 10.7948 25.0528 10.1804 23.5 10.1804ZM14.9839 31.3834C13.7134 31.3834 12.495 31.886 11.5966 32.7807C10.6982 33.6754 10.1935 34.8888 10.1935 36.1541V38.673C10.1935 38.7111 10.2212 38.7451 10.2595 38.7514C19.029 40.1763 27.9731 40.1763 36.7405 38.7514C36.7585 38.7473 36.7748 38.7374 36.7867 38.7232C36.7986 38.7091 36.8055 38.6914 36.8065 38.673V36.1541C36.8065 34.8888 36.3018 33.6754 35.4034 32.7807C34.505 31.886 33.2866 31.3834 32.0161 31.3834H31.2923C31.2353 31.3844 31.1787 31.3929 31.1241 31.4088L29.2824 32.0089C25.5251 33.2307 21.4749 33.2307 17.7175 32.0089L15.8738 31.4088C15.8205 31.3933 15.7654 31.3847 15.7099 31.3834H14.9839ZM7 36.1541C7 34.0453 7.84116 32.0229 9.33842 30.5318C10.8357 29.0407 12.8664 28.203 14.9839 28.203H15.7077C16.1052 28.2044 16.4912 28.2652 16.8659 28.3853L18.7097 28.9853C21.8224 29.9974 25.1776 29.9974 28.2903 28.9853L30.1341 28.3853C30.5066 28.2644 30.8984 28.203 31.2901 28.203H32.0161C34.1336 28.203 36.1643 29.0407 37.6616 30.5318C39.1588 32.0229 40 34.0453 40 36.1541V38.673C40 40.2717 38.8375 41.6329 37.2535 41.8895C28.1448 43.3702 18.8552 43.3702 9.74645 41.8895C8.98039 41.764 8.28391 41.3718 7.78097 40.7828C7.27804 40.1938 7.0013 39.4461 7 38.673V36.1541Z" fill="#F8F8F8" fill-opacity="0.75"/>
</svg>
