<svg width="57" height="56" viewBox="0 0 57 56" fill="none" xmlns="http://www.w3.org/2000/svg">
<path d="M51.2373 12.7907C51.2772 12.4995 51.298 12.2027 51.2999 11.9003C51.2996 10.366 50.7294 8.88442 49.6962 7.73379C48.663 6.58316 47.2379 5.84253 45.6883 5.6509C44.1387 5.45928 42.5713 5.82983 41.28 6.69301C39.9888 7.5562 39.0626 8.85267 38.6753 10.3391C38.288 11.8256 38.4661 13.3998 39.1763 14.7664C39.8865 16.1329 41.0799 17.1979 42.5326 17.7614C43.9852 18.3249 45.5973 18.3481 47.0661 17.8268C48.535 17.3055 49.7598 16.2754 50.5105 14.9299L50.5247 14.9019C50.881 14.2579 51.129 13.5467 51.2373 12.7907ZM7.83745 11.2003H35.6535C35.5459 12.6336 35.7801 14.0717 36.3375 15.4003H7.83745C7.27055 15.4003 6.72687 15.1791 6.32601 14.7853C5.92515 14.3914 5.69995 13.8573 5.69995 13.3003C5.69995 12.7434 5.92515 12.2092 6.32601 11.8154C6.72687 11.4216 7.27055 11.2003 7.83745 11.2003ZM5.69995 27.3003C5.69995 26.7434 5.92515 26.2092 6.32601 25.8154C6.72687 25.4216 7.27055 25.2003 7.83745 25.2003H49.1624C49.7294 25.2003 50.273 25.4216 50.6739 25.8154C51.0748 26.2092 51.2999 26.7434 51.2999 27.3003C51.2999 27.8573 51.0748 28.3914 50.6739 28.7853C50.273 29.1791 49.7294 29.4003 49.1624 29.4003H7.83745C7.27055 29.4003 6.72687 29.1791 6.32601 28.7853C5.92515 28.3914 5.69995 27.8573 5.69995 27.3003ZM7.83745 39.2003C7.27055 39.2003 6.72687 39.4216 6.32601 39.8154C5.92515 40.2092 5.69995 40.7434 5.69995 41.3003C5.69995 41.8573 5.92515 42.3914 6.32601 42.7853C6.72687 43.1791 7.27055 43.4003 7.83745 43.4003H49.1624C49.7294 43.4003 50.273 43.1791 50.6739 42.7853C51.0748 42.3914 51.2999 41.8573 51.2999 41.3003C51.2999 40.7434 51.0748 40.2092 50.6739 39.8154C50.273 39.4216 49.7294 39.2003 49.1624 39.2003H7.83745Z" fill="#F8F8F8" fill-opacity="0.5"/>
</svg>
