<svg width="49" height="49" viewBox="0 0 49 49" fill="none" xmlns="http://www.w3.org/2000/svg">
<path d="M22.3961 3.86494C22.9647 3.32736 23.7175 3.02783 24.5 3.02783C25.2825 3.02783 26.0353 3.32736 26.6039 3.86494L41.4387 17.8881C42.3574 18.7548 42.875 19.9645 42.875 21.2263V38.2844C42.875 39.5027 42.391 40.6712 41.5295 41.5326C40.668 42.3941 39.4996 42.8781 38.2812 42.8781H32.1562C31.5527 42.8781 30.9551 42.7592 30.3976 42.5282C29.8401 42.2971 29.3335 41.9585 28.9069 41.5316C28.4803 41.1047 28.142 40.5979 27.9113 40.0402C27.6806 39.4825 27.5621 38.8848 27.5625 38.2813V30.6251C27.5625 30.219 27.4012 29.8295 27.114 29.5423C26.8268 29.2551 26.4374 29.0938 26.0312 29.0938H22.9688C22.5626 29.0938 22.1732 29.2551 21.886 29.5423C21.5988 29.8295 21.4375 30.219 21.4375 30.6251V38.2813C21.4375 39.4997 20.9535 40.6681 20.092 41.5296C19.2305 42.3911 18.0621 42.8751 16.8438 42.8751H10.7188C9.50041 42.8751 8.33197 42.3911 7.47048 41.5296C6.60898 40.6681 6.125 39.4997 6.125 38.2813V21.2232C6.125 19.9614 6.64563 18.7518 7.56438 17.8851L22.3961 3.86494ZM24.5 6.08832L9.66525 20.1146C9.51465 20.2573 9.39464 20.4292 9.31252 20.6198C9.23039 20.8104 9.18786 21.0157 9.1875 21.2232V38.2813C9.1875 38.6874 9.34883 39.0769 9.63599 39.3641C9.92316 39.6512 10.3126 39.8126 10.7188 39.8126H16.8438C17.2499 39.8126 17.6393 39.6512 17.9265 39.3641C18.2137 39.0769 18.375 38.6874 18.375 38.2813V30.6251C18.375 29.4067 18.859 28.2383 19.7205 27.3768C20.582 26.5153 21.7504 26.0313 22.9688 26.0313H26.0312C27.2496 26.0313 28.418 26.5153 29.2795 27.3768C30.141 28.2383 30.625 29.4067 30.625 30.6251V38.2813C30.625 38.6874 30.7863 39.0769 31.0735 39.3641C31.3607 39.6512 31.7501 39.8126 32.1562 39.8126H38.2812C38.6874 39.8126 39.0768 39.6512 39.364 39.3641C39.6512 39.0769 39.8125 38.6874 39.8125 38.2813V21.2232C39.8126 21.0152 39.7702 20.8093 39.6881 20.6182C39.6059 20.427 39.4857 20.2546 39.3348 20.1115L24.5 6.08832Z" fill="#F8F8F8" fill-opacity="0.75"/>
</svg>
