<svg width="49" height="49" viewBox="0 0 49 49" fill="none" xmlns="http://www.w3.org/2000/svg">
<path d="M22.5317 10.9871H11.8799C10.6244 10.9871 9.42024 11.5187 8.53243 12.4651C7.64461 13.4114 7.14584 14.6949 7.14584 16.0332V38.7411C7.14584 40.0794 7.64461 41.3629 8.53243 42.3093C9.42024 43.2556 10.6244 43.7873 11.8799 43.7873H35.5504C36.806 43.7873 38.0101 43.2556 38.8979 42.3093C39.7858 41.3629 40.2845 40.0794 40.2845 38.7411V27.3872" stroke="currentColor" stroke-opacity="0.75" stroke-width="3.57143" stroke-linecap="round" stroke-linejoin="round"/>
<path d="M35.5513 13.5101L37.8071 16.0332M40.2854 8.38069C40.9175 9.07557 41.2677 10.0077 41.2602 10.9757C41.2527 11.9436 40.888 12.8694 40.2452 13.553L23.716 31.1718L16.6149 33.6949L18.9819 26.1256L35.5205 8.34789C36.1022 7.72388 36.8802 7.35172 37.7042 7.30326C38.5282 7.2548 39.3398 7.53348 39.9824 8.08549L40.2854 8.38069Z" stroke="currentColor" stroke-opacity="0.75" stroke-width="3.57143" stroke-linecap="round" stroke-linejoin="round"/>
</svg>
