<svg width="49" height="49" viewBox="0 0 49 49" fill="none" xmlns="http://www.w3.org/2000/svg">
<path d="M24.0548 13.2218L23.0916 14.1393C23.2164 14.2674 23.366 14.3692 23.5315 14.4388C23.697 14.5084 23.875 14.5442 24.0548 14.5442C24.2346 14.5442 24.4126 14.5084 24.578 14.4388C24.7435 14.3692 24.8931 14.2674 25.0179 14.1393L24.0548 13.2218ZM15.1385 32.4888C14.8641 32.2656 14.5113 32.1594 14.1578 32.1934C13.8042 32.2275 13.4788 32.3991 13.2532 32.6705C13.0275 32.9419 12.9201 33.2909 12.9546 33.6407C12.989 33.9904 13.1625 34.3123 13.4369 34.5355L15.1385 32.4888ZM6.82857 27.1798C6.91289 27.3323 7.02675 27.4668 7.16363 27.5757C7.30051 27.6847 7.45775 27.7659 7.62635 27.8147C7.79496 27.8635 7.97164 27.879 8.14629 27.8603C8.32095 27.8416 8.49018 27.789 8.6443 27.7056C8.79842 27.6222 8.93442 27.5095 9.04455 27.3741C9.15467 27.2387 9.23675 27.0832 9.28611 26.9164C9.33546 26.7496 9.35112 26.5749 9.3322 26.4021C9.31328 26.2293 9.26014 26.0619 9.17582 25.9094L6.82857 27.1798ZM7.55629 19.6389C7.55629 15.8454 9.72339 12.6625 12.6824 11.3233C15.5576 10.023 19.4209 10.3671 23.0916 14.1393L25.0179 12.3061C20.6659 7.82988 15.6075 7.0906 11.5694 8.91673C7.6205 10.704 4.88086 14.8539 4.88086 19.6389H7.55629ZM17.8068 37.9231C18.7217 38.6359 19.7027 39.3946 20.6962 39.9698C21.6897 40.545 22.8241 41.0108 24.0548 41.0108V38.3642C23.5019 38.3642 22.8526 38.1525 22.0464 37.6849C21.2384 37.2191 20.4019 36.5769 19.4637 35.8447L17.8068 37.9231ZM30.3028 37.9231C32.8462 35.9382 36.0996 33.6656 38.6501 30.8232C41.2489 27.9297 43.2287 24.3427 43.2287 19.6389H40.5533C40.5533 23.517 38.948 26.504 36.6507 29.0659C34.3052 31.6772 31.3498 33.7362 28.6458 35.8447L30.3028 37.9231ZM43.2287 19.6389C43.2287 14.8539 40.4908 10.704 36.5401 8.91673C32.502 7.0906 27.4472 7.82988 23.0916 12.3043L25.0179 14.1393C28.6886 10.3688 32.5519 10.023 35.4271 11.3233C38.3862 12.6625 40.5533 15.8437 40.5533 19.6389H43.2287ZM28.6458 35.8447C27.7076 36.5769 26.8711 37.2191 26.0631 37.6849C25.2551 38.1507 24.6077 38.3642 24.0548 38.3642V41.0108C25.2855 41.0108 26.4199 40.5432 27.4133 39.9698C28.4086 39.3946 29.3878 38.6359 30.3028 37.9231L28.6458 35.8447ZM19.4637 35.8447C18.044 34.7384 16.601 33.6798 15.1385 32.4888L13.4369 34.5355C14.9173 35.7406 16.4833 36.8909 17.8068 37.9231L19.4637 35.8447ZM9.17582 25.9112C8.10123 23.9924 7.54353 21.8324 7.55629 19.6389H4.88086C4.88086 22.5289 5.62998 25.0114 6.82857 27.1798L9.17582 25.9112Z" fill="#F8F8F8" fill-opacity="0.75"/>
</svg>
